<svg xmlns="http://www.w3.org/2000/svg" viewBox="0 0 100 100">
  <g fill="none" stroke="#000" stroke-width="3.4" stroke-linejoin="round" stroke-linecap="round">
    <line x1="50.00" y1="23.42" x2="73.02" y2="63.29"/>
    <line x1="50.00" y1="23.42" x2="26.98" y2="63.29"/>
    <line x1="50.00" y1="23.42" x2="87.24" y2="28.50"/>
    <line x1="50.00" y1="23.42" x2="12.76" y2="28.50"/>
    <line x1="50.00" y1="23.42" x2="50.00" y2="7.00"/>
    <line x1="73.02" y1="63.29" x2="26.98" y2="63.29"/>
    <line x1="73.02" y1="63.29" x2="87.24" y2="28.50"/>
    <line x1="73.02" y1="63.29" x2="50.00" y2="93.00"/>
    <line x1="73.02" y1="63.29" x2="87.24" y2="71.50"/>
    <line x1="26.98" y1="63.29" x2="12.76" y2="28.50"/>
    <line x1="26.98" y1="63.29" x2="50.00" y2="93.00"/>
    <line x1="26.98" y1="63.29" x2="12.76" y2="71.50"/>
    <line x1="87.24" y1="28.50" x2="50.00" y2="7.00"/>
    <line x1="87.24" y1="28.50" x2="87.24" y2="71.50"/>
    <line x1="12.76" y1="28.50" x2="50.00" y2="7.00"/>
    <line x1="12.76" y1="28.50" x2="12.76" y2="71.50"/>
    <line x1="50.00" y1="93.00" x2="87.24" y2="71.50"/>
    <line x1="50.00" y1="93.00" x2="12.76" y2="71.50"/>
  </g>
</svg>
