<svg xmlns="http://www.w3.org/2000/svg" viewBox="0 0 1702 596" fill="#fff"><!-- Cul-de-lampe: confronted EB Garamond hederae U+E001+U+E002 (OFL), tips meeting. AldineXXI §IV Close / punto finale. --><path d="M707 -41Q697 -41 691.0 -37.0Q685 -33 677 -26Q670 -20 677 -13Q687 -3 701.5 0.0Q716 3 716 14Q716 25 708.0 34.0Q700 43 690 52Q680 62 672.5 72.5Q665 83 665 97Q665 117 677.5 133.0Q690 149 691 158Q692 166 685 166Q679 168 673 162Q666 156 649.5 145.5Q633 135 612 127Q601 123 586.5 108.0Q572 93 562.0 75.5Q552 58 552 45Q552 38 555.0 29.5Q558 21 564 21Q571 21 577.0 24.5Q583 28 588 32Q593 36 596.0 39.0Q599 42 602 42Q612 42 612 35Q612 26 604.5 11.5Q597 -3 584.0 -14.0Q571 -25 554 -25Q535 -25 525.0 -5.0Q515 15 515 40Q515 54 525.5 68.5Q536 83 546 95Q554 104 560.0 111.0Q566 118 566 122Q566 125 563 125Q561 125 553 121Q549 120 545.5 118.0Q542 116 539 116Q535 116 533.0 116.5Q531 117 529 118Q527 119 524.5 119.5Q522 120 518 120Q516 120 510.0 111.0Q504 102 497 91Q492 84 486.0 78.5Q480 73 475 73Q471 73 467.0 73.5Q463 74 459 74Q450 74 443 68Q439 65 434.0 48.5Q429 32 420.0 12.0Q411 -8 396.5 -23.0Q382 -38 359 -38Q338 -38 320.0 -24.0Q302 -10 302 5Q302 18 313.5 27.0Q325 36 332 36Q338 36 343 31Q344 30 346 21Q348 14 350.5 8.0Q353 2 359 2Q371 2 376.0 10.5Q381 19 385 31Q393 63 405.0 78.0Q417 93 452 100Q462 102 471.0 103.5Q480 105 488 109Q500 115 500 128Q500 134 488.5 140.5Q477 147 461.0 154.5Q445 162 431 170Q421 176 411.0 186.0Q401 196 393 196Q385 196 385 186Q385 182 387.0 179.0Q389 176 391 171Q393 167 394.5 162.0Q396 157 396 152Q396 127 380.0 110.5Q364 94 339.5 85.5Q315 77 288 77Q218 77 164.0 113.0Q110 149 79.0 209.5Q48 270 48 343Q48 379 58.5 416.5Q69 454 88.0 485.0Q107 516 131.0 535.5Q155 555 182 555Q207 555 224.0 542.0Q241 529 241 506Q241 494 231.5 487.0Q222 480 210 480Q202 480 195.0 484.0Q188 488 188 496Q188 499 189.0 501.5Q190 504 191 506Q194 509 194 514Q194 521 188.5 524.5Q183 528 176 528Q158 528 145.5 514.0Q133 500 133 483Q133 461 148.5 445.5Q164 430 186 430Q208 430 226.0 433.0Q244 436 260 440Q278 444 296.5 447.0Q315 450 338 450Q372 450 400.0 428.5Q428 407 445.0 374.5Q462 342 462 309Q462 293 453.0 281.0Q444 269 434 259Q425 251 418.5 243.5Q412 236 412 227Q412 218 424.5 206.5Q437 195 454.5 184.0Q472 173 487.0 166.0Q502 159 508 159Q517 159 517 170Q517 183 510.5 192.5Q504 202 496 210Q487 219 479.5 228.5Q472 238 472 251Q472 267 482.5 279.0Q493 291 505 301Q518 311 528.0 319.0Q538 327 538 334Q538 350 525 350Q518 350 510.0 351.0Q502 352 502 355Q502 360 511.0 363.5Q520 367 527 367Q541 367 549.0 357.0Q557 347 557 333Q557 318 549.0 307.0Q541 296 533 285Q525 276 518.5 267.5Q512 259 512 248Q512 237 516.0 227.5Q520 218 524 210Q528 203 531.0 195.0Q534 187 534 178Q534 174 533.5 171.5Q533 169 532 166Q530 160 530 155Q530 148 535 148Q563 148 594.5 157.0Q626 166 648.0 177.5Q670 189 670 196Q670 203 666.5 209.0Q663 215 658 222Q654 230 649.5 238.0Q645 246 645 256Q645 275 639 275Q635 275 629.5 267.5Q624 260 619 250Q611 236 601.0 222.5Q591 209 577 209Q563 209 554.0 220.0Q545 231 545 245Q545 259 556.5 269.5Q568 280 576 281Q581 281 581 277Q581 273 580.0 269.0Q579 265 578 260Q577 257 576.5 254.0Q576 251 576 248Q576 236 589 236Q599 236 610.0 257.0Q621 278 629.0 305.5Q637 333 637 352Q637 357 640.0 362.5Q643 368 647 373Q652 380 656.0 385.5Q660 391 660 392Q660 400 654 400Q648 400 642.0 397.0Q636 394 628 390Q620 386 609.5 383.5Q599 381 585 381Q565 381 554.0 397.5Q543 414 534 429Q528 439 518.5 442.5Q509 446 498 446Q491 446 484.0 444.0Q477 442 472 443Q464 443 464 454Q464 465 479.0 474.5Q494 484 509 484Q539 484 553.0 470.5Q567 457 577 442Q586 429 596.5 418.0Q607 407 628 407Q635 407 646.0 413.5Q657 420 666.0 431.5Q675 443 675 457Q675 468 666.5 477.5Q658 487 650 490Q620 502 612.5 503.0Q605 504 605 515Q605 523 621.0 528.0Q637 533 652 533Q663 533 671.0 527.5Q679 522 685 515Q691 509 696.5 504.0Q702 499 708 499Q719 499 726.5 503.5Q734 508 742 514Q753 521 768.0 527.5Q783 534 808 534Q842 534 871.5 525.0Q901 516 920.0 499.5Q939 483 939 458Q939 442 928.5 431.0Q918 420 902 420Q893 420 885.0 423.5Q877 427 877 436Q877 441 877.0 445.0Q877 449 881 453Q884 456 887.0 454.5Q890 453 894 453Q898 453 899.0 457.0Q900 461 900 465Q900 484 882 487Q870 489 861.0 490.5Q852 492 842 492Q811 492 795.0 472.0Q779 452 779 427Q779 333 810 333Q818 333 823.5 335.0Q829 337 834 339Q839 342 844.5 344.0Q850 346 858 346Q879 346 896.5 331.5Q914 317 914 296Q914 280 905.0 273.5Q896 267 887 265Q874 261 874 258Q874 255 878.5 252.0Q883 249 889 244Q900 237 911.5 226.5Q923 216 923 202Q923 141 906 141Q901 141 897.5 147.0Q894 153 892 160Q890 168 890.5 174.0Q891 180 891 188Q891 201 869.5 216.5Q848 232 827 248Q817 256 810.0 265.0Q803 274 803 285Q803 289 809 293Q815 297 815 302Q815 305 804.5 313.0Q794 321 787 321Q783 321 783 312Q783 308 783.5 301.5Q784 295 784 289Q784 274 775.0 260.0Q766 246 755 234Q743 221 732.5 209.5Q722 198 722 190Q722 176 733 176Q740 176 745.5 180.5Q751 185 756 191Q763 197 770.0 202.5Q777 208 787 208Q809 208 821.0 190.0Q833 172 833 151Q833 129 826.0 121.5Q819 114 811 112Q804 111 798.0 111.0Q792 111 792 106Q792 99 806 99Q813 99 821.5 100.0Q830 101 837 101Q845 101 848.0 95.0Q851 89 854 81Q856 74 859.5 68.5Q863 63 870 63Q876 63 879.0 66.0Q882 69 883 73Q885 78 888.0 82.0Q891 86 896 86Q907 86 912.0 77.5Q917 69 917 58Q917 43 903.5 35.0Q890 27 872.0 24.0Q854 21 842 21Q829 21 809.0 33.5Q789 46 769.5 64.5Q750 83 737.0 100.5Q724 118 724 127Q724 130 725.5 131.5Q727 133 727 136Q727 141 721.5 145.0Q716 149 706 149Q695 149 692.5 134.0Q690 119 690 109Q690 96 698.5 88.0Q707 80 718 72Q729 63 739.5 51.5Q750 40 750 18Q750 -3 739.0 -22.0Q728 -41 707 -41ZM696 209Q706 209 720.5 224.0Q735 239 746.5 260.5Q758 282 758 303Q758 332 751.5 356.0Q745 380 716 380Q690 380 676.0 356.5Q662 333 662 307Q662 287 666.5 264.0Q671 241 678.5 225.0Q686 209 696 209Z" transform="translate(-48,555) scale(1,-1)"/><path d="M280 -41Q259 -41 248.0 -22.0Q237 -3 237 18Q237 40 247.5 51.5Q258 63 269 72Q280 80 288.5 88.0Q297 96 297 109Q297 119 294.5 134.0Q292 149 281 149Q271 149 265.5 145.0Q260 141 260 136Q260 133 261.5 131.5Q263 130 263 127Q263 118 250.0 100.5Q237 83 217.5 64.5Q198 46 178.0 33.5Q158 21 145 21Q133 21 115.5 24.0Q98 27 84.0 35.0Q70 43 70 58Q70 69 75.5 77.5Q81 86 91 86Q96 86 99.0 82.0Q102 78 104 73Q106 69 108.5 66.0Q111 63 117 63Q125 63 128.0 68.5Q131 74 133 81Q136 89 139.5 95.0Q143 101 150 101Q158 101 166.0 100.0Q174 99 181 99Q195 99 195 106Q195 111 189.5 111.0Q184 111 176 112Q168 114 161.0 121.5Q154 129 154 151Q154 172 166.0 190.0Q178 208 200 208Q210 208 217.0 202.5Q224 197 231 191Q236 185 241.5 180.5Q247 176 254 176Q265 176 265 190Q265 198 254.5 209.5Q244 221 232 234Q221 246 212.0 260.0Q203 274 203 289Q203 295 203.5 301.5Q204 308 204 312Q204 321 200 321Q193 321 182.5 313.0Q172 305 172 302Q172 297 178 293Q184 289 184 285Q184 274 177.0 265.0Q170 256 160 248Q139 232 117.5 216.5Q96 201 96 188Q96 180 96.5 174.0Q97 168 95 160Q93 153 89.5 147.0Q86 141 81 141Q64 141 64 202Q64 216 76.0 226.5Q88 237 98 244Q104 249 108.5 252.0Q113 255 113 258Q113 261 100 265Q91 267 82.0 273.5Q73 280 73 296Q73 317 90.5 331.5Q108 346 129 346Q137 346 143.0 344.0Q149 342 153 339Q158 337 163.5 335.0Q169 333 177 333Q208 333 208 427Q208 452 192.0 472.0Q176 492 145 492Q135 492 126.0 490.5Q117 489 105 487Q87 484 87 465Q87 461 88.0 457.0Q89 453 93 453Q97 453 100.0 454.5Q103 456 106 453Q110 449 110.0 445.0Q110 441 110 436Q110 427 102.0 423.5Q94 420 85 420Q69 420 58.5 431.0Q48 442 48 458Q48 483 67.0 499.5Q86 516 116.0 525.0Q146 534 179 534Q205 534 219.5 527.5Q234 521 245 514Q253 508 261.0 503.5Q269 499 279 499Q285 499 290.5 504.0Q296 509 302 515Q308 522 316.0 527.5Q324 533 335 533Q350 533 366.0 528.0Q382 523 382 515Q382 504 374.5 503.0Q367 502 337 490Q329 487 320.5 477.5Q312 468 312 457Q312 443 321.0 431.5Q330 420 341.5 413.5Q353 407 359 407Q380 407 390.5 418.0Q401 429 410 442Q421 457 434.5 470.5Q448 484 478 484Q493 484 508.0 474.5Q523 465 523 454Q523 443 515 443Q511 442 504.0 444.0Q497 446 489 446Q478 446 468.5 442.5Q459 439 453 429Q444 414 433.0 397.5Q422 381 402 381Q388 381 377.5 383.5Q367 386 359 390Q351 394 345.0 397.0Q339 400 333 400Q327 400 327 392Q327 391 331.5 385.5Q336 380 340 373Q344 368 347.0 362.5Q350 357 350 352Q350 333 358.0 305.5Q366 278 377.0 257.0Q388 236 398 236Q411 236 411 248Q411 251 410.5 254.0Q410 257 409 260Q408 265 407.0 269.0Q406 273 406 277Q406 281 411 281Q419 280 430.5 269.5Q442 259 442 245Q442 231 433.0 220.0Q424 209 410 209Q397 209 386.5 222.5Q376 236 368 250Q363 260 358.0 267.5Q353 275 348 275Q342 275 342 256Q342 246 338.0 238.0Q334 230 329 222Q325 215 321.0 209.0Q317 203 317 196Q317 189 339.0 177.5Q361 166 392.5 157.0Q424 148 452 148Q457 148 457 155Q457 160 455 166Q454 169 453.5 171.5Q453 174 453 178Q453 187 456.0 195.0Q459 203 463 210Q468 218 471.5 227.5Q475 237 475 248Q475 259 468.5 267.5Q462 276 454 285Q446 296 438.0 307.0Q430 318 430 333Q430 347 438.5 357.0Q447 367 460 367Q468 367 476.5 363.5Q485 360 485 355Q485 352 477.5 351.0Q470 350 462 350Q449 350 449 334Q449 327 459.0 319.0Q469 311 482 301Q494 291 504.5 279.0Q515 267 515 251Q515 238 507.5 228.5Q500 219 491 210Q483 202 476.5 192.5Q470 183 470 170Q470 159 479 159Q485 159 500.0 166.0Q515 173 532.5 184.0Q550 195 562.5 206.5Q575 218 575 227Q575 236 568.5 243.5Q562 251 553 259Q543 269 534.0 281.0Q525 293 525 309Q525 342 542.0 374.5Q559 407 587.0 428.5Q615 450 649 450Q672 450 690.5 447.0Q709 444 727 440Q744 436 761.5 433.0Q779 430 801 430Q823 430 838.5 445.5Q854 461 854 483Q854 500 841.5 514.0Q829 528 811 528Q804 528 798.5 524.5Q793 521 793 514Q793 509 796 506Q797 504 798.0 501.5Q799 499 799 496Q799 488 792.0 484.0Q785 480 777 480Q765 480 755.5 487.0Q746 494 746 506Q746 529 763.0 542.0Q780 555 805 555Q832 555 856.0 535.5Q880 516 899.0 485.0Q918 454 928.5 416.5Q939 379 939 343Q939 270 908.0 209.5Q877 149 823.0 113.0Q769 77 699 77Q673 77 648.0 85.5Q623 94 607.0 110.5Q591 127 591 152Q591 157 593.0 162.0Q595 167 596 171Q598 176 600.0 179.0Q602 182 602 186Q602 196 594 196Q587 196 577.0 186.0Q567 176 556 170Q543 162 526.5 154.5Q510 147 498.5 140.5Q487 134 487 128Q487 115 499 109Q507 105 516.0 103.5Q525 102 535 100Q570 93 582.0 78.0Q594 63 602 31Q606 19 611.0 10.5Q616 2 628 2Q634 2 637.0 8.0Q640 14 641 21Q643 30 644 31Q649 36 655 36Q662 36 673.5 27.0Q685 18 685 5Q685 -10 667.0 -24.0Q649 -38 628 -38Q605 -38 590.5 -23.0Q576 -8 567.0 12.0Q558 32 553.0 48.5Q548 65 544 68Q537 74 528 74Q524 74 520.5 73.5Q517 73 512 73Q507 73 501.0 78.5Q495 84 490 91Q483 102 477.0 111.0Q471 120 469 120Q465 120 462.5 119.5Q460 119 458 118Q456 117 454.0 116.5Q452 116 448 116Q445 116 441.5 118.0Q438 120 434 121Q426 125 424 125Q421 125 421 122Q421 118 427.0 111.0Q433 104 441 95Q452 83 462.0 68.5Q472 54 472 40Q472 15 462.0 -5.0Q452 -25 433 -25Q417 -25 403.5 -14.0Q390 -3 382.5 11.5Q375 26 375 35Q375 42 385 42Q388 42 391.5 39.0Q395 36 399 32Q404 28 410.0 24.5Q416 21 423 21Q429 21 432.0 29.5Q435 38 435 45Q435 58 425.0 75.5Q415 93 401.0 108.0Q387 123 375 127Q354 135 337.5 145.5Q321 156 314 162Q308 168 302 166Q295 166 296 158Q297 149 309.5 133.0Q322 117 322 97Q322 83 314.5 72.5Q307 62 297 52Q287 43 279.0 34.0Q271 25 271 14Q271 3 285.5 0.0Q300 -3 310 -13Q317 -20 310 -26Q303 -33 296.5 -37.0Q290 -41 280 -41ZM291 209Q301 209 308.5 225.0Q316 241 320.5 264.0Q325 287 325 307Q325 333 311.0 356.5Q297 380 271 380Q242 380 235.5 356.0Q229 332 229 303Q229 282 240.5 260.5Q252 239 266.5 224.0Q281 209 291 209Z" transform="translate(763,555) scale(1,-1)"/></svg>